<svg width="34" height="34" viewBox="0 0 34 34" fill="none" xmlns="http://www.w3.org/2000/svg">
<rect width="34" height="34" rx="5" fill="white" fill-opacity="0.1"/>
<path d="M14 21.4004L10.125 25.3004C9.92499 25.5004 9.69165 25.6004 9.42499 25.6004C9.15832 25.6004 8.92499 25.5004 8.72499 25.3004C8.52499 25.1004 8.42499 24.8631 8.42499 24.5884C8.42499 24.3137 8.52499 24.0761 8.72499 23.8754L12.6 20.0004H11C10.7167 20.0004 10.4793 19.9047 10.288 19.7134C10.0967 19.5221 10.0007 19.2844 9.99999 19.0004C9.99932 18.7164 10.0953 18.4791 10.288 18.2884C10.4807 18.0977 10.718 18.0017 11 18.0004H15C15.2833 18.0004 15.521 18.0964 15.713 18.2884C15.905 18.4804 16.0007 18.7177 16 19.0004V23.0004C16 23.2837 15.904 23.5214 15.712 23.7134C15.52 23.9054 15.2827 24.0011 15 24.0004C14.7173 23.9997 14.48 23.9037 14.288 23.7124C14.096 23.5211 14 23.2837 14 23.0004V21.4004ZM21.4 14.0004H23C23.2833 14.0004 23.521 14.0964 23.713 14.2884C23.905 14.4804 24.0007 14.7177 24 15.0004C23.9993 15.2831 23.9033 15.5207 23.712 15.7134C23.5207 15.9061 23.2833 16.0017 23 16.0004H19C18.7167 16.0004 18.4793 15.9044 18.288 15.7124C18.0967 15.5204 18.0007 15.2831 18 15.0004V11.0004C18 10.7171 18.096 10.4797 18.288 10.2884C18.48 10.0971 18.7173 10.0011 19 10.0004C19.2827 9.99972 19.5203 10.0957 19.713 10.2884C19.9057 10.4811 20.0013 10.7184 20 11.0004V12.6004L23.875 8.70039C24.075 8.50039 24.3083 8.40039 24.575 8.40039C24.8417 8.40039 25.075 8.50039 25.275 8.70039C25.475 8.90039 25.575 9.13772 25.575 9.41239C25.575 9.68706 25.475 9.92472 25.275 10.1254L21.4 14.0004Z" fill="white"/>
</svg>
