<svg width="24" height="15" viewBox="0 0 24 15" fill="none" xmlns="http://www.w3.org/2000/svg">
<path d="M15.9068 3.22151C15.1033 2.84693 14.2333 2.57505 13.327 2.41797C13.3111 2.4182 13.2959 2.42471 13.2847 2.43609C13.176 2.63547 13.0491 2.89526 12.9645 3.09464C12.0033 2.94973 11.0258 2.94973 10.0645 3.09464C9.97993 2.88922 9.85306 2.63547 9.73827 2.43609C9.73222 2.42401 9.7141 2.41797 9.69597 2.41797C8.78972 2.57505 7.92577 2.84693 7.11618 3.22151C7.11014 3.22151 7.1041 3.22755 7.09806 3.23359C5.45472 5.69255 5.0016 8.08505 5.22514 10.4534C5.22514 10.4655 5.23118 10.4776 5.24327 10.4836C6.33077 11.2811 7.37597 11.7644 8.4091 12.0846C8.42722 12.0907 8.44535 12.0846 8.45139 12.0726C8.69306 11.7403 8.91056 11.3898 9.09785 11.0213C9.10993 10.9971 9.09785 10.973 9.07368 10.9669C8.72931 10.834 8.40306 10.6769 8.08285 10.4957C8.05868 10.4836 8.05868 10.4473 8.07681 10.4292C8.14327 10.3809 8.20972 10.3265 8.27618 10.2782C8.28827 10.2661 8.30639 10.2661 8.31847 10.2721C10.3968 11.2207 12.6383 11.2207 14.6924 10.2721C14.7045 10.2661 14.7226 10.2661 14.7347 10.2782C14.8012 10.3326 14.8676 10.3809 14.9341 10.4353C14.9583 10.4534 14.9583 10.4896 14.9281 10.5017C14.6139 10.689 14.2816 10.8401 13.9372 10.973C13.9131 10.979 13.907 11.0092 13.9131 11.0273C14.1064 11.3959 14.3239 11.7463 14.5595 12.0786C14.5776 12.0846 14.5958 12.0907 14.6139 12.0846C15.6531 11.7644 16.6983 11.2811 17.7858 10.4836C17.7978 10.4776 17.8039 10.4655 17.8039 10.4534C18.0697 7.71651 17.3628 5.34214 15.931 3.23359C15.9249 3.22755 15.9189 3.22151 15.9068 3.22151ZM9.41202 9.00943C8.78972 9.00943 8.27014 8.43547 8.27014 7.72859C8.27014 7.02172 8.77764 6.44776 9.41202 6.44776C10.0524 6.44776 10.5599 7.02776 10.5539 7.72859C10.5539 8.43547 10.0464 9.00943 9.41202 9.00943ZM13.6231 9.00943C13.0008 9.00943 12.4812 8.43547 12.4812 7.72859C12.4812 7.02172 12.9887 6.44776 13.6231 6.44776C14.2635 6.44776 14.771 7.02776 14.7649 7.72859C14.7649 8.43547 14.2635 9.00943 13.6231 9.00943Z" fill="white"/>
</svg>
