<svg width="41" height="40" viewBox="0 0 41 40" fill="none" xmlns="http://www.w3.org/2000/svg">
<path d="M8.02366 12.2226H32.6068C33.9108 12.2226 35.1614 12.7406 36.0834 13.6627C37.0054 14.5847 37.5235 15.8353 37.5235 17.1392V29.4308C37.5235 30.7348 37.0054 31.9853 36.0834 32.9074C35.1614 33.8294 33.9108 34.3474 32.6068 34.3474H8.02366C6.71969 34.3474 5.46912 33.8294 4.54707 32.9074C3.62503 31.9853 3.10703 30.7348 3.10703 29.4308V17.1392C3.10703 15.8353 3.62503 14.5847 4.54707 13.6627C5.46912 12.7406 6.71969 12.2226 8.02366 12.2226ZM17.8569 4.84766H22.7736C24.0775 4.84766 25.3281 5.36566 26.2501 6.2877C27.1722 7.20975 27.6902 8.46032 27.6902 9.76429V12.2226H12.9403V9.76429C12.9403 8.46032 13.4583 7.20975 14.3803 6.2877C15.3024 5.36566 16.5529 4.84766 17.8569 4.84766Z" stroke="url(#paint0_linear_1363_2644)" stroke-width="2.45832" stroke-linecap="round" stroke-linejoin="round"/>
<path d="M15.4747 26.6563C15.5647 26.5663 15.6857 26.5156 15.8123 26.5156H27.5318C27.7456 26.5156 27.8525 26.7745 27.7006 26.9236L25.3848 29.2394C25.2948 29.3294 25.1738 29.3801 25.0472 29.3801H13.3277C13.1139 29.3801 13.007 29.1212 13.1589 28.9721L15.4747 26.6563Z" fill="url(#paint1_linear_1363_2644)"/>
<path d="M15.4748 18.0118C15.5649 17.9217 15.6859 17.8711 15.8125 17.8711H27.5319C27.7458 17.8711 27.8527 18.13 27.7007 18.2791L25.385 20.592C25.295 20.6821 25.174 20.7327 25.0473 20.7327H13.3279C13.1141 20.7327 13.0071 20.4739 13.1591 20.3247L15.4748 18.0118Z" fill="url(#paint2_linear_1363_2644)"/>
<path d="M25.3848 22.3048C25.2948 22.2147 25.1738 22.1641 25.0472 22.1641H13.3277C13.1139 22.1641 13.007 22.4229 13.1589 22.5721L15.4747 24.885C15.5647 24.975 15.6857 25.0257 15.8123 25.0257H27.5318C27.7456 25.0257 27.8525 24.7668 27.7006 24.6177L25.3848 22.3048Z" fill="url(#paint3_linear_1363_2644)"/>
<defs>
<linearGradient id="paint0_linear_1363_2644" x1="30.1535" y1="-63.195" x2="-44.4149" y2="-30.6845" gradientUnits="userSpaceOnUse">
<stop stop-color="#00FFA3"/>
<stop offset="1" stop-color="#DC1FFF"/>
</linearGradient>
<linearGradient id="paint1_linear_1363_2644" x1="24.6274" y1="19.9087" x2="16.5197" y2="35.4409" gradientUnits="userSpaceOnUse">
<stop stop-color="#00FFA3"/>
<stop offset="1" stop-color="#DC1FFF"/>
</linearGradient>
<linearGradient id="paint2_linear_1363_2644" x1="24.6276" y1="11.2706" x2="16.5324" y2="26.7941" gradientUnits="userSpaceOnUse">
<stop stop-color="#00FFA3"/>
<stop offset="1" stop-color="#DC1FFF"/>
</linearGradient>
<linearGradient id="paint3_linear_1363_2644" x1="24.6274" y1="15.5636" x2="16.5323" y2="31.0871" gradientUnits="userSpaceOnUse">
<stop stop-color="#00FFA3"/>
<stop offset="1" stop-color="#DC1FFF"/>
</linearGradient>
</defs>
</svg>
