<svg width="244" height="94" viewBox="0 0 244 94" fill="none" xmlns="http://www.w3.org/2000/svg">
<path d="M224 8.5V35.5H219.5V40H210.5V44.5H206V53.5H183.5V40H188V35.5H192.5V31H201.5V26.5H206V17.5H201.5V13H192.5V17.5H188V22H183.5V26.5H179V22H174.5V17.5H170V13H165.5V8.5H170V4H174.5V-0.5H183.5V-5H210.5V-0.5H215V4H219.5V8.5H224ZM201.5 67H206V80.5H201.5V85H188V80.5H183.5V67H188V62.5H201.5V67Z" fill="url(#paint0_radial_1363_2714)"/>
<path d="M153 26.5V53.5H148.5V58H139.5V62.5H135V71.5H112.5V58H117V53.5H121.5V49H130.5V44.5H135V35.5H130.5V31H121.5V35.5H117V40H112.5V44.5H108V40H103.5V35.5H99V31H94.5V26.5H99V22H103.5V17.5H112.5V13H139.5V17.5H144V22H148.5V26.5H153ZM130.5 85H135V98.5H130.5V103H117V98.5H112.5V85H117V80.5H130.5V85Z" fill="url(#paint1_radial_1363_2714)"/>
<path d="M81 8.5V35.5H76.5V40H67.5V44.5H63V53.5H40.5V40H45V35.5H49.5V31H58.5V26.5H63V17.5H58.5V13H49.5V17.5H45V22H40.5V26.5H36V22H31.5V17.5H27V13H22.5V8.5H27V4H31.5V-0.5H40.5V-5H67.5V-0.5H72V4H76.5V8.5H81ZM58.5 67H63V80.5H58.5V85H45V80.5H40.5V67H45V62.5H58.5V67Z" fill="url(#paint2_radial_1363_2714)"/>
<defs>
<radialGradient id="paint0_radial_1363_2714" cx="0" cy="0" r="1" gradientUnits="userSpaceOnUse" gradientTransform="translate(194.75 63.2258) rotate(90) scale(35.0942 22.8112)">
<stop stop-color="#FAFAFA"/>
<stop offset="1" stop-color="#515151" stop-opacity="0.8"/>
</radialGradient>
<radialGradient id="paint1_radial_1363_2714" cx="0" cy="0" r="1" gradientUnits="userSpaceOnUse" gradientTransform="translate(123.75 81.2258) rotate(90) scale(35.0942 22.8112)">
<stop stop-color="#FAFAFA"/>
<stop offset="1" stop-color="#515151" stop-opacity="0.8"/>
</radialGradient>
<radialGradient id="paint2_radial_1363_2714" cx="0" cy="0" r="1" gradientUnits="userSpaceOnUse" gradientTransform="translate(51.75 63.2258) rotate(90) scale(35.0942 22.8112)">
<stop stop-color="#FAFAFA"/>
<stop offset="1" stop-color="#515151" stop-opacity="0.8"/>
</radialGradient>
</defs>
</svg>
