<svg width="14" height="14" viewBox="0 0 14 14" fill="none" xmlns="http://www.w3.org/2000/svg">
<path d="M6.99998 8.75001C7.96648 8.75001 8.74998 7.96651 8.74998 7.00001C8.74998 6.03352 7.96648 5.25002 6.99998 5.25002C6.03348 5.25002 5.24998 6.03352 5.24998 7.00001C5.24998 7.96651 6.03348 8.75001 6.99998 8.75001Z" stroke="white" stroke-width="0.739084" stroke-miterlimit="10" stroke-linecap="round" stroke-linejoin="round"/>
<path d="M1.16667 7.5133V6.48663C1.16667 5.87997 1.6625 5.3783 2.275 5.3783C3.33083 5.3783 3.7625 4.63164 3.23166 3.7158C2.92833 3.1908 3.10916 2.5083 3.64 2.20497L4.64916 1.62747C5.10999 1.35331 5.70499 1.51664 5.97916 1.97747L6.04333 2.08831C6.56832 3.00414 7.43166 3.00414 7.96249 2.08831L8.02666 1.97747C8.30082 1.51664 8.89582 1.35331 9.35665 1.62747L10.3658 2.20497C10.8967 2.5083 11.0775 3.1908 10.7742 3.7158C10.2433 4.63164 10.675 5.3783 11.7308 5.3783C12.3375 5.3783 12.8391 5.87413 12.8391 6.48663V7.5133C12.8391 8.11996 12.3433 8.62163 11.7308 8.62163C10.675 8.62163 10.2433 9.36829 10.7742 10.2841C11.0775 10.815 10.8967 11.4916 10.3658 11.795L9.35665 12.3725C8.89582 12.6466 8.30082 12.4833 8.02666 12.0225L7.96249 11.9116C7.43749 10.9958 6.57416 10.9958 6.04333 11.9116L5.97916 12.0225C5.70499 12.4833 5.10999 12.6466 4.64916 12.3725L3.64 11.795C3.10916 11.4916 2.92833 10.8091 3.23166 10.2841C3.7625 9.36829 3.33083 8.62163 2.275 8.62163C1.6625 8.62163 1.16667 8.11996 1.16667 7.5133Z" stroke="white" stroke-width="0.739084" stroke-miterlimit="10" stroke-linecap="round" stroke-linejoin="round"/>
</svg>
