<svg width="34" height="34" viewBox="0 0 34 34" fill="none" xmlns="http://www.w3.org/2000/svg">
<path d="M16.8291 2.80664C14.054 2.80664 11.3413 3.62954 9.0339 5.17129C6.72651 6.71304 4.92812 8.90438 3.86615 11.4682C2.80418 14.032 2.52631 16.8532 3.0677 19.575C3.60909 22.2967 4.94542 24.7968 6.90769 26.7591C8.86996 28.7213 11.37 30.0577 14.0918 30.5991C16.8135 31.1404 19.6347 30.8626 22.1985 29.8006C24.7624 28.7386 26.9537 26.9402 28.4955 24.6329C30.0372 22.3255 30.8601 19.6127 30.8601 16.8376C30.8603 14.995 30.4974 13.1704 29.7924 11.468C29.0873 9.76564 28.0538 8.21882 26.7509 6.91589C25.4479 5.61296 23.9011 4.57945 22.1987 3.87438C20.4963 3.16931 18.6717 2.80649 16.8291 2.80664ZM21.2903 24.0671C21.2378 24.198 21.1579 24.3162 21.0559 24.4138C20.954 24.5113 20.8324 24.586 20.6992 24.6327C20.5661 24.6794 20.4245 24.6971 20.284 24.6846C20.1434 24.6721 20.0072 24.6297 19.8844 24.5603L16.0754 21.6006L13.6308 23.856C13.574 23.8979 13.5077 23.9248 13.4378 23.9344C13.3679 23.9439 13.2968 23.9358 13.2309 23.9106L13.6995 19.7175L13.7145 19.7294L13.7241 19.6466C13.7241 19.6466 20.5782 13.4063 20.8575 13.1404C21.1401 12.8752 21.0469 12.8177 21.0469 12.8177C21.063 12.4943 20.5396 12.8177 20.5396 12.8177L11.458 18.6603L7.67599 17.3722C7.67599 17.3722 7.09511 17.1639 7.04039 16.7058C6.98286 16.2512 7.69492 16.0042 7.69492 16.0042L22.732 10.0305C22.732 10.0305 23.9681 9.47975 23.9681 10.3918L21.2903 24.0671Z" fill="white"/>
</svg>
